<?xml version="1.0" encoding="UTF-8" standalone="no"?>
<!DOCTYPE svg PUBLIC "-//W3C//DTD SVG 1.1//EN"
 "http://www.w3.org/Graphics/SVG/1.1/DTD/svg11.dtd">
<!-- Generated by graphviz version 2.43.0 (0)
 -->
<!-- Title: iia Pages: 1 -->
<svg width="884pt" height="1023pt"
 viewBox="0.00 0.00 884.00 1023.00" xmlns="http://www.w3.org/2000/svg" xmlns:xlink="http://www.w3.org/1999/xlink">
<g id="graph0" class="graph" transform="scale(1 1) rotate(0) translate(4 1019)">
<title>iia</title>
<polygon fill="white" stroke="transparent" points="-4,4 -4,-1019 880,-1019 880,4 -4,4"/>
<g id="clust1" class="cluster">
<title>cluster_promos</title>
<polygon fill="transparent" stroke="transparent" stroke-width="0" points="52,-653 52,-728 831.5,-728 831.5,-653 52,-653"/>
<text text-anchor="middle" x="441.75" y="-712.8" font-family="Arial" font-size="14.00">Promos</text>
</g>
<g id="clust2" class="cluster">
<title>cluster_legende</title>
<polygon fill="transparent" stroke="black" points="8,-736 8,-1007 302,-1007 302,-736 8,-736"/>
<text text-anchor="middle" x="155" y="-991.8" font-family="Arial" font-size="14.00">Légende</text>
</g>
<g id="clust3" class="cluster">
<title>cluster_2IA</title>
<polygon fill="#fce0ff" stroke="black" points="51,-8 51,-599 868,-599 868,-8 51,-8"/>
<text text-anchor="middle" x="459.5" y="-583.8" font-family="Arial" font-size="14.00">2IA</text>
</g>
<!-- 2021 -->
<g id="node1" class="node">
<title>2021</title>
<polygon fill="#f0f0f0" stroke="transparent" points="114,-697 60,-697 60,-661 114,-661 114,-697"/>
<text text-anchor="middle" x="87" y="-675.3" font-family="Arial" font-size="14.00">2021</text>
</g>
<!-- 2022 -->
<g id="node2" class="node">
<title>2022</title>
<polygon fill="#f0f0f0" stroke="transparent" points="276,-697 222,-697 222,-661 276,-661 276,-697"/>
<text text-anchor="middle" x="249" y="-675.3" font-family="Arial" font-size="14.00">2022</text>
</g>
<!-- 2021&#45;&gt;2022 -->
<g id="edge1" class="edge">
<title>2021&#45;&gt;2022</title>
<path fill="none" stroke="black" d="M114.06,-679C140.56,-679 181.84,-679 211.57,-679"/>
<polygon fill="black" stroke="black" points="211.95,-682.5 221.95,-679 211.95,-675.5 211.95,-682.5"/>
</g>
<!-- 2023 -->
<g id="node3" class="node">
<title>2023</title>
<polygon fill="#f0f0f0" stroke="transparent" points="460.5,-697 406.5,-697 406.5,-661 460.5,-661 460.5,-697"/>
<text text-anchor="middle" x="433.5" y="-675.3" font-family="Arial" font-size="14.00">2023</text>
</g>
<!-- 2022&#45;&gt;2023 -->
<g id="edge2" class="edge">
<title>2022&#45;&gt;2023</title>
<path fill="none" stroke="black" d="M276.15,-679C307.59,-679 360.55,-679 396,-679"/>
<polygon fill="black" stroke="black" points="396.4,-682.5 406.4,-679 396.4,-675.5 396.4,-682.5"/>
</g>
<!-- 2024 -->
<g id="node4" class="node">
<title>2024</title>
<polygon fill="#f0f0f0" stroke="transparent" points="657,-697 603,-697 603,-661 657,-661 657,-697"/>
<text text-anchor="middle" x="630" y="-675.3" font-family="Arial" font-size="14.00">2024</text>
</g>
<!-- 2023&#45;&gt;2024 -->
<g id="edge3" class="edge">
<title>2023&#45;&gt;2024</title>
<path fill="none" stroke="black" d="M460.73,-679C494.76,-679 554.29,-679 592.65,-679"/>
<polygon fill="black" stroke="black" points="592.87,-682.5 602.87,-679 592.87,-675.5 592.87,-682.5"/>
</g>
<!-- 2025 -->
<g id="node5" class="node">
<title>2025</title>
<polygon fill="#f0f0f0" stroke="transparent" points="823.5,-697 769.5,-697 769.5,-661 823.5,-661 823.5,-697"/>
<text text-anchor="middle" x="796.5" y="-675.3" font-family="Arial" font-size="14.00">2025</text>
</g>
<!-- 2024&#45;&gt;2025 -->
<g id="edge4" class="edge">
<title>2024&#45;&gt;2025</title>
<path fill="none" stroke="black" d="M657.07,-679C684.54,-679 728.03,-679 758.93,-679"/>
<polygon fill="black" stroke="black" points="759.28,-682.5 769.28,-679 759.28,-675.5 759.28,-682.5"/>
</g>
<!-- endnode -->
<!-- 2024&#45;&gt;endnode -->
<!-- leg_parrain -->
<g id="node6" class="node">
<title>leg_parrain</title>
<polygon fill="#f0f0f0" stroke="black" points="117,-976 57,-976 57,-940 117,-940 117,-976"/>
<text text-anchor="middle" x="87" y="-954.3" font-family="Arial" font-size="14.00">Parrain</text>
</g>
<!-- leg_fillot -->
<g id="node7" class="node">
<title>leg_fillot</title>
<polygon fill="#f0f0f0" stroke="black" points="276,-922 222,-922 222,-886 276,-886 276,-922"/>
<text text-anchor="middle" x="249" y="-900.3" font-family="Arial" font-size="14.00">Fillot</text>
</g>
<!-- leg_parrain&#45;&gt;leg_fillot -->
<g id="edge5" class="edge">
<title>leg_parrain&#45;&gt;leg_fillot</title>
<path fill="none" stroke="black" d="M117.35,-948.1C144.06,-939.08 183.57,-925.75 212.14,-916.1"/>
<polygon fill="black" stroke="black" points="213.4,-919.37 221.76,-912.86 211.16,-912.74 213.4,-919.37"/>
</g>
<!-- leg_fillotadop -->
<g id="node8" class="node">
<title>leg_fillotadop</title>
<polygon fill="#f0f0f0" stroke="black" points="294,-976 204,-976 204,-940 294,-940 294,-976"/>
<text text-anchor="middle" x="249" y="-954.3" font-family="Arial" font-size="14.00">Fillot Adoptif</text>
</g>
<!-- leg_parrain&#45;&gt;leg_fillotadop -->
<g id="edge6" class="edge">
<title>leg_parrain&#45;&gt;leg_fillotadop</title>
<path fill="none" stroke="black" stroke-dasharray="5,2" d="M117.35,-958C138.6,-958 167.95,-958 193.45,-958"/>
<polygon fill="black" stroke="black" points="193.74,-961.5 203.74,-958 193.74,-954.5 193.74,-961.5"/>
</g>
<!-- leg_BDE -->
<g id="node9" class="node">
<title>leg_BDE</title>
<polygon fill="#f05050" stroke="black" points="136.5,-922 37.5,-922 37.5,-886 136.5,-886 136.5,-922"/>
<text text-anchor="start" x="45.5" y="-907.8" font-family="Arial" font-size="14.00">Membre BDE</text>
<text text-anchor="start" x="69.5" y="-893.8" font-family="Arial" font-style="italic" font-size="14.00">Poste</text>
</g>
<!-- leg_prez -->
<g id="node10" class="node">
<title>leg_prez</title>
<polygon fill="yellow" stroke="black" points="147.5,-868 26.5,-868 26.5,-832 147.5,-832 147.5,-868"/>
<text text-anchor="start" x="34.5" y="-853.8" font-family="Arial" font-size="14.00">Président de club</text>
<text text-anchor="start" x="73" y="-839.8" font-family="Arial" font-style="italic" font-size="14.00">Club</text>
</g>
<!-- leg_listeux -->
<g id="node11" class="node">
<title>leg_listeux</title>
<polygon fill="#f0f0f0" stroke="red" stroke-width="4" points="158,-813.5 16,-813.5 16,-744.5 158,-744.5 158,-813.5"/>
<text text-anchor="middle" x="87" y="-798.3" font-family="Arial" font-size="14.00">Listeux</text>
<text text-anchor="middle" x="87" y="-767.3" font-family="Arial" font-size="14.00">(Couleur du tour</text>
<text text-anchor="middle" x="87" y="-752.3" font-family="Arial" font-size="14.00"> = couleur de la liste)</text>
</g>
<!-- amina -->
<g id="node12" class="node">
<title>amina</title>
<polygon fill="#f0f0f0" stroke="black" points="115,-472.5 59,-472.5 59,-433.5 115,-433.5 115,-472.5"/>
<text text-anchor="middle" x="87" y="-441.3" font-family="Arial" font-size="14.00">Amina</text>
</g>
<!-- christelle -->
<g id="node16" class="node">
<title>christelle</title>
<polygon fill="#f0f0f0" stroke="black" points="285.5,-567.5 212.5,-567.5 212.5,-528.5 285.5,-528.5 285.5,-567.5"/>
<text text-anchor="middle" x="249" y="-536.3" font-family="Arial" font-size="14.00">Christelle</text>
</g>
<!-- amina&#45;&gt;christelle -->
<g id="edge7" class="edge">
<title>amina&#45;&gt;christelle</title>
<path fill="none" stroke="black" d="M115.16,-470.58C136.4,-484.17 166.8,-503.25 194,-519 197.04,-520.76 200.19,-522.55 203.38,-524.33"/>
<polygon fill="black" stroke="black" points="201.94,-527.53 212.38,-529.29 205.31,-521.4 201.94,-527.53"/>
</g>
<!-- evapicrou -->
<g id="node22" class="node">
<title>evapicrou</title>
<polygon fill="#f05050" stroke="purple" stroke-width="4" points="527,-430 340,-430 340,-380 527,-380 527,-430"/>
<text text-anchor="start" x="383.5" y="-415.8" font-family="Arial" font-size="14.00">PICROUILLERE</text>
<text text-anchor="start" x="421.5" y="-401.8" font-family="Arial" font-size="14.00">Eva</text>
<text text-anchor="start" x="348" y="-387.8" font-family="Arial" font-style="italic" font-size="14.00">Respo Partenariats/Goodies</text>
</g>
<!-- amina&#45;&gt;evapicrou -->
<g id="edge8" class="edge">
<title>amina&#45;&gt;evapicrou</title>
<path fill="none" stroke="black" d="M115.12,-452.7C156.23,-451.88 236.65,-448.89 304,-438 313.72,-436.43 323.78,-434.46 333.79,-432.27"/>
<polygon fill="black" stroke="black" points="334.79,-435.64 343.77,-430.02 333.24,-428.81 334.79,-435.64"/>
</g>
<!-- thibaultleste -->
<g id="node30" class="node">
<title>thibaultleste</title>
<polygon fill="#f0f0f0" stroke="black" points="481,-362 386,-362 386,-324 481,-324 481,-362"/>
<text text-anchor="middle" x="433.5" y="-346.8" font-family="Arial" font-size="14.00">LESTERLAN</text>
<text text-anchor="middle" x="433.5" y="-331.8" font-family="Arial" font-size="14.00">Thibault</text>
</g>
<!-- amina&#45;&gt;thibaultleste -->
<g id="edge9" class="edge">
<title>amina&#45;&gt;thibaultleste</title>
<path fill="none" stroke="black" d="M115.01,-449.14C136.42,-446.09 167.12,-441.73 194,-438 242.87,-431.21 261.95,-448.81 304,-423 327.96,-408.3 317.28,-387.55 340,-371 350.7,-363.21 363.59,-357.56 376.3,-353.47"/>
<polygon fill="black" stroke="black" points="377.34,-356.81 385.95,-350.64 375.37,-350.1 377.34,-356.81"/>
</g>
<!-- antoinebouch -->
<g id="node13" class="node">
<title>antoinebouch</title>
<polygon fill="#f0f0f0" stroke="black" points="286.5,-414 211.5,-414 211.5,-376 286.5,-376 286.5,-414"/>
<text text-anchor="middle" x="249" y="-398.8" font-family="Arial" font-size="14.00">BOUCHÉ</text>
<text text-anchor="middle" x="249" y="-383.8" font-family="Arial" font-size="14.00">Antoine</text>
</g>
<!-- kelliandup -->
<g id="node23" class="node">
<title>kelliandup</title>
<polygon fill="#f0f0f0" stroke="black" points="470.5,-306 396.5,-306 396.5,-268 470.5,-268 470.5,-306"/>
<text text-anchor="middle" x="433.5" y="-290.8" font-family="Arial" font-size="14.00">DUPONT</text>
<text text-anchor="middle" x="433.5" y="-275.8" font-family="Arial" font-size="14.00">Kellian</text>
</g>
<!-- antoinebouch&#45;&gt;kelliandup -->
<g id="edge10" class="edge">
<title>antoinebouch&#45;&gt;kelliandup</title>
<path fill="none" stroke="black" d="M286.72,-379.07C292.83,-375.57 298.85,-371.54 304,-367 325.1,-348.43 317.28,-331.55 340,-315 353.46,-305.19 370.39,-298.78 386.07,-294.61"/>
<polygon fill="black" stroke="black" points="387.25,-297.92 396.15,-292.17 385.61,-291.12 387.25,-297.92"/>
</g>
<!-- antoinekhra -->
<g id="node14" class="node">
<title>antoinekhra</title>
<polygon fill="#f0f0f0" stroke="yellow" stroke-width="4" points="290,-510 208,-510 208,-472 290,-472 290,-510"/>
<text text-anchor="middle" x="249" y="-494.8" font-family="Arial" font-size="14.00">KHRATOS</text>
<text text-anchor="middle" x="249" y="-479.8" font-family="Arial" font-size="14.00">Antoine</text>
</g>
<!-- luciegria -->
<g id="node24" class="node">
<title>luciegria</title>
<polygon fill="#f0f0f0" stroke="black" points="468.5,-568 398.5,-568 398.5,-530 468.5,-530 468.5,-568"/>
<text text-anchor="middle" x="433.5" y="-552.8" font-family="Arial" font-size="14.00">GRIAUD</text>
<text text-anchor="middle" x="433.5" y="-537.8" font-family="Arial" font-size="14.00">Lucie</text>
</g>
<!-- antoinekhra&#45;&gt;luciegria -->
<g id="edge11" class="edge">
<title>antoinekhra&#45;&gt;luciegria</title>
<path fill="none" stroke="black" d="M290.24,-504.68C305.76,-509.89 323.68,-515.81 340,-521 355.74,-526 373.05,-531.3 388.4,-535.92"/>
<polygon fill="black" stroke="black" points="387.58,-539.33 398.17,-538.85 389.59,-532.63 387.58,-539.33"/>
</g>
<!-- smitty -->
<g id="node28" class="node">
<title>smitty</title>
<defs>
<linearGradient id="l_0" gradientUnits="userSpaceOnUse" x1="366.5" y1="-480" x2="500.5" y2="-480" >
<stop offset="0" style="stop-color:#f05050;stop-opacity:1.;"/>
<stop offset="1" style="stop-color:yellow;stop-opacity:1.;"/>
</linearGradient>
</defs>
<polygon fill="url(#l_0)" stroke="purple" stroke-width="4" points="500.5,-512 366.5,-512 366.5,-448 500.5,-448 500.5,-512"/>
<text text-anchor="start" x="403" y="-497.8" font-family="Arial" font-size="14.00">MISTERS</text>
<text text-anchor="start" x="403" y="-483.8" font-family="Arial" font-size="14.00">Alexandre</text>
<text text-anchor="start" x="374.5" y="-469.8" font-family="Arial" font-style="italic" font-size="14.00">Respo International</text>
<text text-anchor="start" x="416" y="-455.8" font-family="Arial" font-style="italic" font-size="14.00">L&#39;Agri</text>
</g>
<!-- antoinekhra&#45;&gt;smitty -->
<g id="edge12" class="edge">
<title>antoinekhra&#45;&gt;smitty</title>
<path fill="none" stroke="black" d="M290.05,-488.59C309.52,-487.41 333.58,-485.96 356.36,-484.59"/>
<polygon fill="black" stroke="black" points="356.59,-488.08 366.36,-483.99 356.17,-481.09 356.59,-488.08"/>
</g>
<!-- chloedeb -->
<g id="node15" class="node">
<title>chloedeb</title>
<polygon fill="yellow" stroke="black" points="291,-358 207,-358 207,-308 291,-308 291,-358"/>
<text text-anchor="start" x="215" y="-343.8" font-family="Arial" font-size="14.00">DEBERGH</text>
<text text-anchor="start" x="231" y="-329.8" font-family="Arial" font-size="14.00">Chloé</text>
<text text-anchor="start" x="217" y="-315.8" font-family="Arial" font-style="italic" font-size="14.00">Polydance</text>
</g>
<!-- christelle&#45;&gt;luciegria -->
<g id="edge13" class="edge">
<title>christelle&#45;&gt;luciegria</title>
<path fill="none" stroke="black" d="M285.62,-548.2C314.88,-548.36 356.49,-548.58 387.96,-548.76"/>
<polygon fill="black" stroke="black" points="388.19,-552.26 398.2,-548.81 388.22,-545.26 388.19,-552.26"/>
</g>
<!-- christelle&#45;&gt;smitty -->
<g id="edge14" class="edge">
<title>christelle&#45;&gt;smitty</title>
<path fill="none" stroke="black" d="M285.62,-534.73C305.95,-527.15 332.23,-517.36 356.94,-508.16"/>
<polygon fill="black" stroke="black" points="358.16,-511.43 366.31,-504.66 355.72,-504.87 358.16,-511.43"/>
</g>
<!-- joker -->
<g id="node17" class="node">
<title>joker</title>
<polygon fill="#f05050" stroke="deeppink" stroke-width="4" points="293.5,-290 204.5,-290 204.5,-240 293.5,-240 293.5,-290"/>
<text text-anchor="start" x="223" y="-275.8" font-family="Arial" font-size="14.00">CORME</text>
<text text-anchor="start" x="224.5" y="-261.8" font-family="Arial" font-size="14.00">Baptiste</text>
<text text-anchor="start" x="212.5" y="-247.8" font-family="Arial" font-style="italic" font-size="14.00">Respo Com</text>
</g>
<!-- leachantar -->
<g id="node18" class="node">
<title>leachantar</title>
<polygon fill="#f0f0f0" stroke="black" points="304,-222 194,-222 194,-184 304,-184 304,-222"/>
<text text-anchor="middle" x="249" y="-206.8" font-family="Arial" font-size="14.00">CHANTARAUD</text>
<text text-anchor="middle" x="249" y="-191.8" font-family="Arial" font-size="14.00">Léa</text>
</g>
<!-- nicolatseite -->
<g id="node25" class="node">
<title>nicolatseite</title>
<polygon fill="#f0f0f0" stroke="black" points="464,-236 403,-236 403,-198 464,-198 464,-236"/>
<text text-anchor="middle" x="433.5" y="-220.8" font-family="Arial" font-size="14.00">SEITÉ</text>
<text text-anchor="middle" x="433.5" y="-205.8" font-family="Arial" font-size="14.00">Nicolas</text>
</g>
<!-- leachantar&#45;&gt;nicolatseite -->
<g id="edge15" class="edge">
<title>leachantar&#45;&gt;nicolatseite</title>
<path fill="none" stroke="black" d="M304.26,-207.16C332.61,-209.34 366.7,-211.95 392.6,-213.94"/>
<polygon fill="black" stroke="black" points="392.56,-217.45 402.8,-214.72 393.1,-210.47 392.56,-217.45"/>
</g>
<!-- elboulac -->
<g id="node26" class="node">
<title>elboulac</title>
<polygon fill="#f0f0f0" stroke="black" points="470,-180 397,-180 397,-142 470,-142 470,-180"/>
<text text-anchor="middle" x="433.5" y="-164.8" font-family="Arial" font-size="14.00">BOULAC</text>
<text text-anchor="middle" x="433.5" y="-149.8" font-family="Arial" font-size="14.00">Elléa</text>
</g>
<!-- leachantar&#45;&gt;elboulac -->
<g id="edge16" class="edge">
<title>leachantar&#45;&gt;elboulac</title>
<path fill="none" stroke="black" d="M304.26,-190.51C330.58,-184.46 361.84,-177.26 386.91,-171.49"/>
<polygon fill="black" stroke="black" points="387.93,-174.85 396.89,-169.2 386.36,-168.03 387.93,-174.85"/>
</g>
<!-- maxencemor -->
<g id="node19" class="node">
<title>maxencemor</title>
<polygon fill="#f0f0f0" stroke="black" points="286,-166 212,-166 212,-128 286,-128 286,-166"/>
<text text-anchor="middle" x="249" y="-150.8" font-family="Arial" font-size="14.00">MAUREL</text>
<text text-anchor="middle" x="249" y="-135.8" font-family="Arial" font-size="14.00">Maxence</text>
</g>
<!-- valentingam -->
<g id="node20" class="node">
<title>valentingam</title>
<polygon fill="#f0f0f0" stroke="white" stroke-width="4" points="284.5,-110 213.5,-110 213.5,-72 284.5,-72 284.5,-110"/>
<text text-anchor="middle" x="249" y="-94.8" font-family="Arial" font-size="14.00">GAMAIN</text>
<text text-anchor="middle" x="249" y="-79.8" font-family="Arial" font-size="14.00">Valentin</text>
</g>
<!-- sophielaver -->
<g id="node29" class="node">
<title>sophielaver</title>
<polygon fill="#f0f0f0" stroke="black" points="475,-110 392,-110 392,-72 475,-72 475,-110"/>
<text text-anchor="middle" x="433.5" y="-94.8" font-family="Arial" font-size="14.00">LAVERSIN</text>
<text text-anchor="middle" x="433.5" y="-79.8" font-family="Arial" font-size="14.00">Sophie</text>
</g>
<!-- valentingam&#45;&gt;sophielaver -->
<g id="edge17" class="edge">
<title>valentingam&#45;&gt;sophielaver</title>
<path fill="none" stroke="black" d="M284.76,-91C312.17,-91 350.79,-91 381.67,-91"/>
<polygon fill="black" stroke="black" points="381.82,-94.5 391.82,-91 381.82,-87.5 381.82,-94.5"/>
</g>
<!-- yasminebahi -->
<g id="node21" class="node">
<title>yasminebahi</title>
<polygon fill="#f0f0f0" stroke="black" points="283.5,-54 214.5,-54 214.5,-16 283.5,-16 283.5,-54"/>
<text text-anchor="middle" x="249" y="-38.8" font-family="Arial" font-size="14.00">BAHI</text>
<text text-anchor="middle" x="249" y="-23.8" font-family="Arial" font-size="14.00">Yasmine</text>
</g>
<!-- salmabouyad -->
<g id="node27" class="node">
<title>salmabouyad</title>
<polygon fill="#f0f0f0" stroke="black" points="470.5,-54 396.5,-54 396.5,-16 470.5,-16 470.5,-54"/>
<text text-anchor="middle" x="433.5" y="-38.8" font-family="Arial" font-size="14.00">BOUYAD</text>
<text text-anchor="middle" x="433.5" y="-23.8" font-family="Arial" font-size="14.00">Salma</text>
</g>
<!-- yasminebahi&#45;&gt;salmabouyad -->
<g id="edge18" class="edge">
<title>yasminebahi&#45;&gt;salmabouyad</title>
<path fill="none" stroke="black" d="M283.9,-35C312.61,-35 354.06,-35 385.89,-35"/>
<polygon fill="black" stroke="black" points="386.28,-38.5 396.28,-35 386.28,-31.5 386.28,-38.5"/>
</g>
<!-- chloenico -->
<g id="node31" class="node">
<title>chloenico</title>
<polygon fill="#f05050" stroke="yellow" stroke-width="4" points="697,-436 563,-436 563,-386 697,-386 697,-436"/>
<text text-anchor="start" x="604" y="-421.8" font-family="Arial" font-size="14.00">NICOLE</text>
<text text-anchor="start" x="612" y="-407.8" font-family="Arial" font-size="14.00">Chloé</text>
<text text-anchor="start" x="571" y="-393.8" font-family="Arial" font-style="italic" font-size="14.00">Respo International</text>
</g>
<!-- evapicrou&#45;&gt;chloenico -->
<g id="edge19" class="edge">
<title>evapicrou&#45;&gt;chloenico</title>
<path fill="none" stroke="black" d="M527.19,-407.86C535.75,-408.12 544.35,-408.39 552.74,-408.65"/>
<polygon fill="black" stroke="black" points="552.73,-412.15 562.84,-408.96 552.95,-405.15 552.73,-412.15"/>
</g>
<!-- didieraud -->
<g id="node32" class="node">
<title>didieraud</title>
<polygon fill="#f0f0f0" stroke="orange" stroke-width="4" points="661,-368 599,-368 599,-330 661,-330 661,-368"/>
<text text-anchor="middle" x="630" y="-352.8" font-family="Arial" font-size="14.00">DIDIER</text>
<text text-anchor="middle" x="630" y="-337.8" font-family="Arial" font-size="14.00">Audren</text>
</g>
<!-- evapicrou&#45;&gt;didieraud -->
<g id="edge20" class="edge">
<title>evapicrou&#45;&gt;didieraud</title>
<path fill="none" stroke="black" d="M521.51,-379.95C545.11,-373.15 569.52,-366.12 589.11,-360.49"/>
<polygon fill="black" stroke="black" points="590.24,-363.8 598.88,-357.67 588.3,-357.08 590.24,-363.8"/>
</g>
<!-- smitty&#45;&gt;chloenico -->
<g id="edge21" class="edge">
<title>smitty&#45;&gt;chloenico</title>
<path fill="none" stroke="black" d="M500.62,-456.54C517.53,-450.54 535.85,-444.05 553.2,-437.89"/>
<polygon fill="black" stroke="black" points="554.48,-441.15 562.73,-434.51 552.14,-434.55 554.48,-441.15"/>
</g>
<!-- emilebct -->
<g id="node33" class="node">
<title>emilebct</title>
<polygon fill="#f0f0f0" stroke="orange" stroke-width="4" points="673.5,-503 586.5,-503 586.5,-465 673.5,-465 673.5,-503"/>
<text text-anchor="middle" x="630" y="-487.8" font-family="Arial" font-size="14.00">BOUCHET </text>
<text text-anchor="middle" x="630" y="-472.8" font-family="Arial" font-size="14.00">Emile</text>
</g>
<!-- smitty&#45;&gt;emilebct -->
<g id="edge22" class="edge">
<title>smitty&#45;&gt;emilebct</title>
<path fill="none" stroke="black" d="M500.62,-481.36C525.27,-481.87 552.91,-482.44 576.21,-482.91"/>
<polygon fill="black" stroke="black" points="576.18,-486.41 586.25,-483.12 576.32,-479.42 576.18,-486.41"/>
</g>
<!-- arnaudauz -->
<g id="node36" class="node">
<title>arnaudauz</title>
<polygon fill="#f0f0f0" stroke="black" points="829,-378 764,-378 764,-340 829,-340 829,-378"/>
<text text-anchor="middle" x="796.5" y="-362.8" font-family="Arial" font-size="14.00">AUZOU</text>
<text text-anchor="middle" x="796.5" y="-347.8" font-family="Arial" font-size="14.00">Arnaud</text>
</g>
<!-- chloenico&#45;&gt;arnaudauz -->
<g id="edge28" class="edge">
<title>chloenico&#45;&gt;arnaudauz</title>
<path fill="none" stroke="black" d="M697.43,-390C716.52,-383.97 736.78,-377.56 753.9,-372.15"/>
<polygon fill="black" stroke="black" points="755.11,-375.44 763.59,-369.09 753,-368.76 755.11,-375.44"/>
</g>
<!-- gabrielbr -->
<g id="node43" class="node">
<title>gabrielbr</title>
<polygon fill="#f0f0f0" stroke="black" points="839,-322 754,-322 754,-284 839,-284 839,-322"/>
<text text-anchor="middle" x="796.5" y="-306.8" font-family="Arial" font-size="14.00">BREMARD</text>
<text text-anchor="middle" x="796.5" y="-291.8" font-family="Arial" font-size="14.00">Gabriel</text>
</g>
<!-- didieraud&#45;&gt;gabrielbr -->
<g id="edge29" class="edge">
<title>didieraud&#45;&gt;gabrielbr</title>
<path fill="none" stroke="black" d="M661.17,-340.56C684.3,-334.09 716.77,-325.02 743.99,-317.4"/>
<polygon fill="black" stroke="black" points="745.06,-320.74 753.75,-314.67 743.18,-314 745.06,-320.74"/>
</g>
<!-- raphaelcle -->
<g id="node39" class="node">
<title>raphaelcle</title>
<polygon fill="#f05050" stroke="pink" stroke-width="4" points="848.5,-446 744.5,-446 744.5,-396 848.5,-396 848.5,-446"/>
<text text-anchor="start" x="763.5" y="-431.8" font-family="Arial" font-size="14.00">CLEMENT</text>
<text text-anchor="start" x="771" y="-417.8" font-family="Arial" font-size="14.00">Raphaël</text>
<text text-anchor="start" x="752.5" y="-403.8" font-family="Arial" font-style="italic" font-size="14.00">Vice&#45;Président</text>
</g>
<!-- emilebct&#45;&gt;raphaelcle -->
<g id="edge26" class="edge">
<title>emilebct&#45;&gt;raphaelcle</title>
<path fill="none" stroke="black" d="M673.79,-467.61C692.45,-460.47 714.65,-451.96 734.95,-444.19"/>
<polygon fill="black" stroke="black" points="736.35,-447.4 744.44,-440.56 733.85,-440.86 736.35,-447.4"/>
</g>
<!-- emmariot -->
<g id="node40" class="node">
<title>emmariot</title>
<polygon fill="#f05050" stroke="pink" stroke-width="4" points="843.5,-514 749.5,-514 749.5,-464 843.5,-464 843.5,-514"/>
<text text-anchor="start" x="779.5" y="-499.8" font-family="Arial" font-size="14.00">RIOT</text>
<text text-anchor="start" x="776" y="-485.8" font-family="Arial" font-size="14.00">Emma</text>
<text text-anchor="start" x="757.5" y="-471.8" font-family="Arial" font-style="italic" font-size="14.00">Respo Clubs</text>
</g>
<!-- emilebct&#45;&gt;emmariot -->
<g id="edge27" class="edge">
<title>emilebct&#45;&gt;emmariot</title>
<path fill="none" stroke="black" d="M673.79,-485.3C693.75,-485.91 717.78,-486.64 739.19,-487.29"/>
<polygon fill="black" stroke="black" points="739.36,-490.8 749.46,-487.6 739.57,-483.8 739.36,-490.8"/>
</g>
<!-- constance -->
<g id="node44" class="node">
<title>constance</title>
<polygon fill="#f0f0f0" stroke="black" points="835.5,-568 757.5,-568 757.5,-532 835.5,-532 835.5,-568"/>
<text text-anchor="middle" x="796.5" y="-546.3" font-family="Arial" font-size="14.00">constance</text>
</g>
<!-- emilebct&#45;&gt;constance -->
<g id="edge25" class="edge">
<title>emilebct&#45;&gt;constance</title>
<path fill="none" stroke="black" d="M673.79,-501.17C696.55,-510.3 724.59,-521.55 748.02,-530.95"/>
<polygon fill="black" stroke="black" points="746.83,-534.24 757.41,-534.72 749.43,-527.75 746.83,-534.24"/>
</g>
<!-- agatleduc -->
<g id="node34" class="node">
<title>agatleduc</title>
<polygon fill="#f0f0f0" stroke="orange" stroke-width="4" points="661,-312 599,-312 599,-274 661,-274 661,-312"/>
<text text-anchor="middle" x="630" y="-296.8" font-family="Arial" font-size="14.00">LEDUC</text>
<text text-anchor="middle" x="630" y="-281.8" font-family="Arial" font-size="14.00">Agathe</text>
</g>
<!-- romainorp -->
<g id="node35" class="node">
<title>romainorp</title>
<polygon fill="#f05050" stroke="yellow" stroke-width="4" points="672,-256 588,-256 588,-206 672,-206 672,-256"/>
<text text-anchor="start" x="606.5" y="-241.8" font-family="Arial" font-size="14.00">ORPEL</text>
<text text-anchor="start" x="606" y="-227.8" font-family="Arial" font-size="14.00">Romain</text>
<text text-anchor="start" x="596" y="-213.8" font-family="Arial" font-style="italic" font-size="14.00">Inté/Events</text>
</g>
<!-- corentinec -->
<g id="node41" class="node">
<title>corentinec</title>
<polygon fill="#f0f0f0" stroke="black" points="834,-262 759,-262 759,-224 834,-224 834,-262"/>
<text text-anchor="middle" x="796.5" y="-246.8" font-family="Arial" font-size="14.00">ECORCE</text>
<text text-anchor="middle" x="796.5" y="-231.8" font-family="Arial" font-size="14.00">Corentin</text>
</g>
<!-- romainorp&#45;&gt;corentinec -->
<g id="edge23" class="edge">
<title>romainorp&#45;&gt;corentinec</title>
<path fill="none" stroke="black" d="M672.09,-234C695.4,-235.7 724.66,-237.83 748.84,-239.6"/>
<polygon fill="black" stroke="black" points="748.63,-243.09 758.86,-240.33 749.14,-236.11 748.63,-243.09"/>
</g>
<!-- theoborel -->
<g id="node42" class="node">
<title>theoborel</title>
<polygon fill="#f05050" stroke="pink" stroke-width="4" points="860,-206 733,-206 733,-156 860,-156 860,-206"/>
<text text-anchor="start" x="764" y="-191.8" font-family="Arial" font-size="14.00">BORRELY</text>
<text text-anchor="start" x="781" y="-177.8" font-family="Arial" font-size="14.00">Théo</text>
<text text-anchor="start" x="741" y="-163.8" font-family="Arial" font-style="italic" font-size="14.00">Respo Inté/Events</text>
</g>
<!-- romainorp&#45;&gt;theoborel -->
<g id="edge24" class="edge">
<title>romainorp&#45;&gt;theoborel</title>
<path fill="none" stroke="black" d="M672.09,-218.51C687.58,-213.8 705.71,-208.29 723.22,-202.97"/>
<polygon fill="black" stroke="black" points="724.31,-206.3 732.86,-200.04 722.28,-199.6 724.31,-206.3"/>
</g>
<!-- romainorp&#45;&gt;endnode -->
<!-- constancep -->
<g id="node37" class="node">
<title>constancep</title>
<polygon fill="#f0f0f0" stroke="black" points="837,-130 756,-130 756,-92 837,-92 837,-130"/>
<text text-anchor="middle" x="796.5" y="-114.8" font-family="Arial" font-size="14.00">PELLET</text>
<text text-anchor="middle" x="796.5" y="-99.8" font-family="Arial" font-size="14.00">Constance</text>
</g>
<!-- agathechop -->
<g id="node38" class="node">
<title>agathechop</title>
<polygon fill="#f0f0f0" stroke="black" points="831.5,-58 761.5,-58 761.5,-20 831.5,-20 831.5,-58"/>
<text text-anchor="middle" x="796.5" y="-42.8" font-family="Arial" font-size="14.00">CHOPIN</text>
<text text-anchor="middle" x="796.5" y="-27.8" font-family="Arial" font-size="14.00">Agathe</text>
</g>
</g>
</svg>
