<?xml version="1.0" encoding="UTF-8" standalone="no"?>
<!DOCTYPE svg PUBLIC "-//W3C//DTD SVG 1.1//EN"
 "http://www.w3.org/Graphics/SVG/1.1/DTD/svg11.dtd">
<!-- Generated by graphviz version 2.43.0 (0)
 -->
<!-- Title: iia Pages: 1 -->
<svg width="1018pt" height="1023pt"
 viewBox="0.00 0.00 1018.00 1023.00" xmlns="http://www.w3.org/2000/svg" xmlns:xlink="http://www.w3.org/1999/xlink">
<g id="graph0" class="graph" transform="scale(1 1) rotate(0) translate(4 1019)">
<title>iia</title>
<polygon fill="white" stroke="transparent" points="-4,4 -4,-1019 1014,-1019 1014,4 -4,4"/>
<g id="clust1" class="cluster">
<title>cluster_promos</title>
<polygon fill="transparent" stroke="transparent" stroke-width="0" points="52,-653 52,-728 980,-728 980,-653 52,-653"/>
<text text-anchor="middle" x="516" y="-712.8" font-family="Arial" font-size="14.00">Promos</text>
</g>
<g id="clust2" class="cluster">
<title>cluster_legende</title>
<polygon fill="transparent" stroke="black" points="8,-736 8,-1007 302,-1007 302,-736 8,-736"/>
<text text-anchor="middle" x="155" y="-991.8" font-family="Arial" font-size="14.00">Légende</text>
</g>
<g id="clust3" class="cluster">
<title>cluster_2IA</title>
<polygon fill="#fce0ff" stroke="black" points="51,-8 51,-599 1002,-599 1002,-8 51,-8"/>
<text text-anchor="middle" x="526.5" y="-583.8" font-family="Arial" font-size="14.00">2IA</text>
</g>
<!-- 2021 -->
<g id="node1" class="node">
<title>2021</title>
<polygon fill="#f0f0f0" stroke="transparent" points="114,-697 60,-697 60,-661 114,-661 114,-697"/>
<text text-anchor="middle" x="87" y="-675.3" font-family="Arial" font-size="14.00">2021</text>
</g>
<!-- 2022 -->
<g id="node2" class="node">
<title>2022</title>
<polygon fill="#f0f0f0" stroke="transparent" points="276,-697 222,-697 222,-661 276,-661 276,-697"/>
<text text-anchor="middle" x="249" y="-675.3" font-family="Arial" font-size="14.00">2022</text>
</g>
<!-- 2021&#45;&gt;2022 -->
<g id="edge1" class="edge">
<title>2021&#45;&gt;2022</title>
<path fill="none" stroke="black" d="M114.06,-679C140.56,-679 181.84,-679 211.57,-679"/>
<polygon fill="black" stroke="black" points="211.95,-682.5 221.95,-679 211.95,-675.5 211.95,-682.5"/>
</g>
<!-- 2023 -->
<g id="node3" class="node">
<title>2023</title>
<polygon fill="#f0f0f0" stroke="transparent" points="460.5,-697 406.5,-697 406.5,-661 460.5,-661 460.5,-697"/>
<text text-anchor="middle" x="433.5" y="-675.3" font-family="Arial" font-size="14.00">2023</text>
</g>
<!-- 2022&#45;&gt;2023 -->
<g id="edge2" class="edge">
<title>2022&#45;&gt;2023</title>
<path fill="none" stroke="black" d="M276.15,-679C307.59,-679 360.55,-679 396,-679"/>
<polygon fill="black" stroke="black" points="396.4,-682.5 406.4,-679 396.4,-675.5 396.4,-682.5"/>
</g>
<!-- 2024 -->
<g id="node4" class="node">
<title>2024</title>
<polygon fill="#f0f0f0" stroke="transparent" points="657,-697 603,-697 603,-661 657,-661 657,-697"/>
<text text-anchor="middle" x="630" y="-675.3" font-family="Arial" font-size="14.00">2024</text>
</g>
<!-- 2023&#45;&gt;2024 -->
<g id="edge3" class="edge">
<title>2023&#45;&gt;2024</title>
<path fill="none" stroke="black" d="M460.73,-679C494.76,-679 554.29,-679 592.65,-679"/>
<polygon fill="black" stroke="black" points="592.87,-682.5 602.87,-679 592.87,-675.5 592.87,-682.5"/>
</g>
<!-- 2025 -->
<g id="node5" class="node">
<title>2025</title>
<polygon fill="#f0f0f0" stroke="transparent" points="823.5,-697 769.5,-697 769.5,-661 823.5,-661 823.5,-697"/>
<text text-anchor="middle" x="796.5" y="-675.3" font-family="Arial" font-size="14.00">2025</text>
</g>
<!-- 2024&#45;&gt;2025 -->
<g id="edge4" class="edge">
<title>2024&#45;&gt;2025</title>
<path fill="none" stroke="black" d="M657.07,-679C684.54,-679 728.03,-679 758.93,-679"/>
<polygon fill="black" stroke="black" points="759.28,-682.5 769.28,-679 759.28,-675.5 759.28,-682.5"/>
</g>
<!-- endnode -->
<!-- 2024&#45;&gt;endnode -->
<!-- 2026 -->
<g id="node6" class="node">
<title>2026</title>
<polygon fill="#f0f0f0" stroke="transparent" points="972,-697 918,-697 918,-661 972,-661 972,-697"/>
<text text-anchor="middle" x="945" y="-675.3" font-family="Arial" font-size="14.00">2026</text>
</g>
<!-- 2025&#45;&gt;2026 -->
<g id="edge5" class="edge">
<title>2025&#45;&gt;2026</title>
<path fill="none" stroke="black" d="M823.69,-679C846.98,-679 881.28,-679 907.31,-679"/>
<polygon fill="black" stroke="black" points="907.54,-682.5 917.54,-679 907.54,-675.5 907.54,-682.5"/>
</g>
<!-- leg_parrain -->
<g id="node7" class="node">
<title>leg_parrain</title>
<polygon fill="#f0f0f0" stroke="black" points="117,-976 57,-976 57,-940 117,-940 117,-976"/>
<text text-anchor="middle" x="87" y="-954.3" font-family="Arial" font-size="14.00">Parrain</text>
</g>
<!-- leg_fillot -->
<g id="node8" class="node">
<title>leg_fillot</title>
<polygon fill="#f0f0f0" stroke="black" points="276,-922 222,-922 222,-886 276,-886 276,-922"/>
<text text-anchor="middle" x="249" y="-900.3" font-family="Arial" font-size="14.00">Fillot</text>
</g>
<!-- leg_parrain&#45;&gt;leg_fillot -->
<g id="edge6" class="edge">
<title>leg_parrain&#45;&gt;leg_fillot</title>
<path fill="none" stroke="black" d="M117.35,-948.1C144.06,-939.08 183.57,-925.75 212.14,-916.1"/>
<polygon fill="black" stroke="black" points="213.4,-919.37 221.76,-912.86 211.16,-912.74 213.4,-919.37"/>
</g>
<!-- leg_fillotadop -->
<g id="node9" class="node">
<title>leg_fillotadop</title>
<polygon fill="#f0f0f0" stroke="black" points="294,-976 204,-976 204,-940 294,-940 294,-976"/>
<text text-anchor="middle" x="249" y="-954.3" font-family="Arial" font-size="14.00">Fillot Adoptif</text>
</g>
<!-- leg_parrain&#45;&gt;leg_fillotadop -->
<g id="edge7" class="edge">
<title>leg_parrain&#45;&gt;leg_fillotadop</title>
<path fill="none" stroke="black" stroke-dasharray="5,2" d="M117.35,-958C138.6,-958 167.95,-958 193.45,-958"/>
<polygon fill="black" stroke="black" points="193.74,-961.5 203.74,-958 193.74,-954.5 193.74,-961.5"/>
</g>
<!-- leg_BDE -->
<g id="node10" class="node">
<title>leg_BDE</title>
<polygon fill="#f05050" stroke="black" points="136.5,-922 37.5,-922 37.5,-886 136.5,-886 136.5,-922"/>
<text text-anchor="start" x="45.5" y="-907.8" font-family="Arial" font-size="14.00">Membre BDE</text>
<text text-anchor="start" x="69.5" y="-893.8" font-family="Arial" font-style="italic" font-size="14.00">Poste</text>
</g>
<!-- leg_prez -->
<g id="node11" class="node">
<title>leg_prez</title>
<polygon fill="yellow" stroke="black" points="147.5,-868 26.5,-868 26.5,-832 147.5,-832 147.5,-868"/>
<text text-anchor="start" x="34.5" y="-853.8" font-family="Arial" font-size="14.00">Président de club</text>
<text text-anchor="start" x="73" y="-839.8" font-family="Arial" font-style="italic" font-size="14.00">Club</text>
</g>
<!-- leg_listeux -->
<g id="node12" class="node">
<title>leg_listeux</title>
<polygon fill="#f0f0f0" stroke="red" stroke-width="4" points="158,-813.5 16,-813.5 16,-744.5 158,-744.5 158,-813.5"/>
<text text-anchor="middle" x="87" y="-798.3" font-family="Arial" font-size="14.00">Listeux</text>
<text text-anchor="middle" x="87" y="-767.3" font-family="Arial" font-size="14.00">(Couleur du tour</text>
<text text-anchor="middle" x="87" y="-752.3" font-family="Arial" font-size="14.00"> = couleur de la liste)</text>
</g>
<!-- amina -->
<g id="node13" class="node">
<title>amina</title>
<polygon fill="#f0f0f0" stroke="black" points="115,-472.5 59,-472.5 59,-433.5 115,-433.5 115,-472.5"/>
<text text-anchor="middle" x="87" y="-441.3" font-family="Arial" font-size="14.00">Amina</text>
</g>
<!-- christelle -->
<g id="node17" class="node">
<title>christelle</title>
<polygon fill="#f0f0f0" stroke="black" points="285.5,-567.5 212.5,-567.5 212.5,-528.5 285.5,-528.5 285.5,-567.5"/>
<text text-anchor="middle" x="249" y="-536.3" font-family="Arial" font-size="14.00">Christelle</text>
</g>
<!-- amina&#45;&gt;christelle -->
<g id="edge8" class="edge">
<title>amina&#45;&gt;christelle</title>
<path fill="none" stroke="black" d="M115.16,-470.58C136.4,-484.17 166.8,-503.25 194,-519 197.04,-520.76 200.19,-522.55 203.38,-524.33"/>
<polygon fill="black" stroke="black" points="201.94,-527.53 212.38,-529.29 205.31,-521.4 201.94,-527.53"/>
</g>
<!-- evapicrou -->
<g id="node23" class="node">
<title>evapicrou</title>
<polygon fill="#f05050" stroke="purple" stroke-width="4" points="527,-430 340,-430 340,-380 527,-380 527,-430"/>
<text text-anchor="start" x="383.5" y="-415.8" font-family="Arial" font-size="14.00">PICROUILLERE</text>
<text text-anchor="start" x="421.5" y="-401.8" font-family="Arial" font-size="14.00">Eva</text>
<text text-anchor="start" x="348" y="-387.8" font-family="Arial" font-style="italic" font-size="14.00">Respo Partenariats/Goodies</text>
</g>
<!-- amina&#45;&gt;evapicrou -->
<g id="edge9" class="edge">
<title>amina&#45;&gt;evapicrou</title>
<path fill="none" stroke="black" d="M115.12,-452.7C156.23,-451.88 236.65,-448.89 304,-438 313.72,-436.43 323.78,-434.46 333.79,-432.27"/>
<polygon fill="black" stroke="black" points="334.79,-435.64 343.77,-430.02 333.24,-428.81 334.79,-435.64"/>
</g>
<!-- thibaultleste -->
<g id="node31" class="node">
<title>thibaultleste</title>
<polygon fill="#f0f0f0" stroke="black" points="481,-362 386,-362 386,-324 481,-324 481,-362"/>
<text text-anchor="middle" x="433.5" y="-346.8" font-family="Arial" font-size="14.00">LESTERLAN</text>
<text text-anchor="middle" x="433.5" y="-331.8" font-family="Arial" font-size="14.00">Thibault</text>
</g>
<!-- amina&#45;&gt;thibaultleste -->
<g id="edge10" class="edge">
<title>amina&#45;&gt;thibaultleste</title>
<path fill="none" stroke="black" d="M115.01,-449.14C136.42,-446.09 167.12,-441.73 194,-438 242.87,-431.21 261.95,-448.81 304,-423 327.96,-408.3 317.28,-387.55 340,-371 350.7,-363.21 363.59,-357.56 376.3,-353.47"/>
<polygon fill="black" stroke="black" points="377.34,-356.81 385.95,-350.64 375.37,-350.1 377.34,-356.81"/>
</g>
<!-- antoinebouch -->
<g id="node14" class="node">
<title>antoinebouch</title>
<polygon fill="#f0f0f0" stroke="black" points="286.5,-414 211.5,-414 211.5,-376 286.5,-376 286.5,-414"/>
<text text-anchor="middle" x="249" y="-398.8" font-family="Arial" font-size="14.00">BOUCHÉ</text>
<text text-anchor="middle" x="249" y="-383.8" font-family="Arial" font-size="14.00">Antoine</text>
</g>
<!-- kelliandup -->
<g id="node24" class="node">
<title>kelliandup</title>
<polygon fill="#f0f0f0" stroke="black" points="470.5,-306 396.5,-306 396.5,-268 470.5,-268 470.5,-306"/>
<text text-anchor="middle" x="433.5" y="-290.8" font-family="Arial" font-size="14.00">DUPONT</text>
<text text-anchor="middle" x="433.5" y="-275.8" font-family="Arial" font-size="14.00">Kellian</text>
</g>
<!-- antoinebouch&#45;&gt;kelliandup -->
<g id="edge11" class="edge">
<title>antoinebouch&#45;&gt;kelliandup</title>
<path fill="none" stroke="black" d="M286.72,-379.07C292.83,-375.57 298.85,-371.54 304,-367 325.1,-348.43 317.28,-331.55 340,-315 353.46,-305.19 370.39,-298.78 386.07,-294.61"/>
<polygon fill="black" stroke="black" points="387.25,-297.92 396.15,-292.17 385.61,-291.12 387.25,-297.92"/>
</g>
<!-- antoinekhra -->
<g id="node15" class="node">
<title>antoinekhra</title>
<polygon fill="#f0f0f0" stroke="yellow" stroke-width="4" points="290,-510 208,-510 208,-472 290,-472 290,-510"/>
<text text-anchor="middle" x="249" y="-494.8" font-family="Arial" font-size="14.00">KHRATOS</text>
<text text-anchor="middle" x="249" y="-479.8" font-family="Arial" font-size="14.00">Antoine</text>
</g>
<!-- luciegria -->
<g id="node25" class="node">
<title>luciegria</title>
<polygon fill="#f0f0f0" stroke="black" points="468.5,-568 398.5,-568 398.5,-530 468.5,-530 468.5,-568"/>
<text text-anchor="middle" x="433.5" y="-552.8" font-family="Arial" font-size="14.00">GRIAUD</text>
<text text-anchor="middle" x="433.5" y="-537.8" font-family="Arial" font-size="14.00">Lucie</text>
</g>
<!-- antoinekhra&#45;&gt;luciegria -->
<g id="edge12" class="edge">
<title>antoinekhra&#45;&gt;luciegria</title>
<path fill="none" stroke="black" d="M290.24,-504.68C305.76,-509.89 323.68,-515.81 340,-521 355.74,-526 373.05,-531.3 388.4,-535.92"/>
<polygon fill="black" stroke="black" points="387.58,-539.33 398.17,-538.85 389.59,-532.63 387.58,-539.33"/>
</g>
<!-- smitty -->
<g id="node29" class="node">
<title>smitty</title>
<defs>
<linearGradient id="l_0" gradientUnits="userSpaceOnUse" x1="366.5" y1="-480" x2="500.5" y2="-480" >
<stop offset="0" style="stop-color:#f05050;stop-opacity:1.;"/>
<stop offset="1" style="stop-color:yellow;stop-opacity:1.;"/>
</linearGradient>
</defs>
<polygon fill="url(#l_0)" stroke="purple" stroke-width="4" points="500.5,-512 366.5,-512 366.5,-448 500.5,-448 500.5,-512"/>
<text text-anchor="start" x="403" y="-497.8" font-family="Arial" font-size="14.00">MISTERS</text>
<text text-anchor="start" x="403" y="-483.8" font-family="Arial" font-size="14.00">Alexandre</text>
<text text-anchor="start" x="374.5" y="-469.8" font-family="Arial" font-style="italic" font-size="14.00">Respo International</text>
<text text-anchor="start" x="416" y="-455.8" font-family="Arial" font-style="italic" font-size="14.00">L&#39;Agri</text>
</g>
<!-- antoinekhra&#45;&gt;smitty -->
<g id="edge13" class="edge">
<title>antoinekhra&#45;&gt;smitty</title>
<path fill="none" stroke="black" d="M290.05,-488.59C309.52,-487.41 333.58,-485.96 356.36,-484.59"/>
<polygon fill="black" stroke="black" points="356.59,-488.08 366.36,-483.99 356.17,-481.09 356.59,-488.08"/>
</g>
<!-- chloedeb -->
<g id="node16" class="node">
<title>chloedeb</title>
<polygon fill="yellow" stroke="black" points="291,-358 207,-358 207,-308 291,-308 291,-358"/>
<text text-anchor="start" x="215" y="-343.8" font-family="Arial" font-size="14.00">DEBERGH</text>
<text text-anchor="start" x="231" y="-329.8" font-family="Arial" font-size="14.00">Chloé</text>
<text text-anchor="start" x="217" y="-315.8" font-family="Arial" font-style="italic" font-size="14.00">Polydance</text>
</g>
<!-- christelle&#45;&gt;luciegria -->
<g id="edge14" class="edge">
<title>christelle&#45;&gt;luciegria</title>
<path fill="none" stroke="black" d="M285.62,-548.2C314.88,-548.36 356.49,-548.58 387.96,-548.76"/>
<polygon fill="black" stroke="black" points="388.19,-552.26 398.2,-548.81 388.22,-545.26 388.19,-552.26"/>
</g>
<!-- christelle&#45;&gt;smitty -->
<g id="edge15" class="edge">
<title>christelle&#45;&gt;smitty</title>
<path fill="none" stroke="black" d="M285.62,-534.73C305.95,-527.15 332.23,-517.36 356.94,-508.16"/>
<polygon fill="black" stroke="black" points="358.16,-511.43 366.31,-504.66 355.72,-504.87 358.16,-511.43"/>
</g>
<!-- joker -->
<g id="node18" class="node">
<title>joker</title>
<polygon fill="#f05050" stroke="deeppink" stroke-width="4" points="293.5,-290 204.5,-290 204.5,-240 293.5,-240 293.5,-290"/>
<text text-anchor="start" x="223" y="-275.8" font-family="Arial" font-size="14.00">CORME</text>
<text text-anchor="start" x="224.5" y="-261.8" font-family="Arial" font-size="14.00">Baptiste</text>
<text text-anchor="start" x="212.5" y="-247.8" font-family="Arial" font-style="italic" font-size="14.00">Respo Com</text>
</g>
<!-- leachantar -->
<g id="node19" class="node">
<title>leachantar</title>
<polygon fill="#f0f0f0" stroke="black" points="304,-222 194,-222 194,-184 304,-184 304,-222"/>
<text text-anchor="middle" x="249" y="-206.8" font-family="Arial" font-size="14.00">CHANTARAUD</text>
<text text-anchor="middle" x="249" y="-191.8" font-family="Arial" font-size="14.00">Léa</text>
</g>
<!-- nicolatseite -->
<g id="node26" class="node">
<title>nicolatseite</title>
<polygon fill="#f0f0f0" stroke="black" points="464,-236 403,-236 403,-198 464,-198 464,-236"/>
<text text-anchor="middle" x="433.5" y="-220.8" font-family="Arial" font-size="14.00">SEITÉ</text>
<text text-anchor="middle" x="433.5" y="-205.8" font-family="Arial" font-size="14.00">Nicolas</text>
</g>
<!-- leachantar&#45;&gt;nicolatseite -->
<g id="edge16" class="edge">
<title>leachantar&#45;&gt;nicolatseite</title>
<path fill="none" stroke="black" d="M304.26,-207.16C332.61,-209.34 366.7,-211.95 392.6,-213.94"/>
<polygon fill="black" stroke="black" points="392.56,-217.45 402.8,-214.72 393.1,-210.47 392.56,-217.45"/>
</g>
<!-- elboulac -->
<g id="node27" class="node">
<title>elboulac</title>
<polygon fill="#f0f0f0" stroke="black" points="470,-180 397,-180 397,-142 470,-142 470,-180"/>
<text text-anchor="middle" x="433.5" y="-164.8" font-family="Arial" font-size="14.00">BOULAC</text>
<text text-anchor="middle" x="433.5" y="-149.8" font-family="Arial" font-size="14.00">Elléa</text>
</g>
<!-- leachantar&#45;&gt;elboulac -->
<g id="edge17" class="edge">
<title>leachantar&#45;&gt;elboulac</title>
<path fill="none" stroke="black" d="M304.26,-190.51C330.58,-184.46 361.84,-177.26 386.91,-171.49"/>
<polygon fill="black" stroke="black" points="387.93,-174.85 396.89,-169.2 386.36,-168.03 387.93,-174.85"/>
</g>
<!-- maxencemor -->
<g id="node20" class="node">
<title>maxencemor</title>
<polygon fill="#f0f0f0" stroke="black" points="286,-166 212,-166 212,-128 286,-128 286,-166"/>
<text text-anchor="middle" x="249" y="-150.8" font-family="Arial" font-size="14.00">MAUREL</text>
<text text-anchor="middle" x="249" y="-135.8" font-family="Arial" font-size="14.00">Maxence</text>
</g>
<!-- valentingam -->
<g id="node21" class="node">
<title>valentingam</title>
<polygon fill="#f0f0f0" stroke="white" stroke-width="4" points="284.5,-110 213.5,-110 213.5,-72 284.5,-72 284.5,-110"/>
<text text-anchor="middle" x="249" y="-94.8" font-family="Arial" font-size="14.00">GAMAIN</text>
<text text-anchor="middle" x="249" y="-79.8" font-family="Arial" font-size="14.00">Valentin</text>
</g>
<!-- sophielaver -->
<g id="node30" class="node">
<title>sophielaver</title>
<polygon fill="#f0f0f0" stroke="black" points="475,-110 392,-110 392,-72 475,-72 475,-110"/>
<text text-anchor="middle" x="433.5" y="-94.8" font-family="Arial" font-size="14.00">LAVERSIN</text>
<text text-anchor="middle" x="433.5" y="-79.8" font-family="Arial" font-size="14.00">Sophie</text>
</g>
<!-- valentingam&#45;&gt;sophielaver -->
<g id="edge18" class="edge">
<title>valentingam&#45;&gt;sophielaver</title>
<path fill="none" stroke="black" d="M284.76,-91C312.17,-91 350.79,-91 381.67,-91"/>
<polygon fill="black" stroke="black" points="381.82,-94.5 391.82,-91 381.82,-87.5 381.82,-94.5"/>
</g>
<!-- yasminebahi -->
<g id="node22" class="node">
<title>yasminebahi</title>
<polygon fill="#f0f0f0" stroke="black" points="283.5,-54 214.5,-54 214.5,-16 283.5,-16 283.5,-54"/>
<text text-anchor="middle" x="249" y="-38.8" font-family="Arial" font-size="14.00">BAHI</text>
<text text-anchor="middle" x="249" y="-23.8" font-family="Arial" font-size="14.00">Yasmine</text>
</g>
<!-- salmabouyad -->
<g id="node28" class="node">
<title>salmabouyad</title>
<polygon fill="#f0f0f0" stroke="black" points="470.5,-54 396.5,-54 396.5,-16 470.5,-16 470.5,-54"/>
<text text-anchor="middle" x="433.5" y="-38.8" font-family="Arial" font-size="14.00">BOUYAD</text>
<text text-anchor="middle" x="433.5" y="-23.8" font-family="Arial" font-size="14.00">Salma</text>
</g>
<!-- yasminebahi&#45;&gt;salmabouyad -->
<g id="edge19" class="edge">
<title>yasminebahi&#45;&gt;salmabouyad</title>
<path fill="none" stroke="black" d="M283.9,-35C312.61,-35 354.06,-35 385.89,-35"/>
<polygon fill="black" stroke="black" points="386.28,-38.5 396.28,-35 386.28,-31.5 386.28,-38.5"/>
</g>
<!-- chloenico -->
<g id="node32" class="node">
<title>chloenico</title>
<polygon fill="#f05050" stroke="yellow" stroke-width="4" points="697,-435 563,-435 563,-385 697,-385 697,-435"/>
<text text-anchor="start" x="604" y="-420.8" font-family="Arial" font-size="14.00">NICOLE</text>
<text text-anchor="start" x="612" y="-406.8" font-family="Arial" font-size="14.00">Chloé</text>
<text text-anchor="start" x="571" y="-392.8" font-family="Arial" font-style="italic" font-size="14.00">Respo International</text>
</g>
<!-- evapicrou&#45;&gt;chloenico -->
<g id="edge20" class="edge">
<title>evapicrou&#45;&gt;chloenico</title>
<path fill="none" stroke="black" d="M527.19,-407.38C535.75,-407.6 544.35,-407.82 552.74,-408.04"/>
<polygon fill="black" stroke="black" points="552.75,-411.54 562.84,-408.3 552.93,-404.54 552.75,-411.54"/>
</g>
<!-- didieraud -->
<g id="node33" class="node">
<title>didieraud</title>
<polygon fill="#f0f0f0" stroke="orange" stroke-width="4" points="661,-367 599,-367 599,-329 661,-329 661,-367"/>
<text text-anchor="middle" x="630" y="-351.8" font-family="Arial" font-size="14.00">DIDIER</text>
<text text-anchor="middle" x="630" y="-336.8" font-family="Arial" font-size="14.00">Audren</text>
</g>
<!-- evapicrou&#45;&gt;didieraud -->
<g id="edge21" class="edge">
<title>evapicrou&#45;&gt;didieraud</title>
<path fill="none" stroke="black" d="M519.81,-380C543.91,-372.94 569,-365.58 589.05,-359.71"/>
<polygon fill="black" stroke="black" points="590.13,-363.04 598.75,-356.87 588.17,-356.32 590.13,-363.04"/>
</g>
<!-- smitty&#45;&gt;chloenico -->
<g id="edge22" class="edge">
<title>smitty&#45;&gt;chloenico</title>
<path fill="none" stroke="black" d="M500.62,-456.2C517.53,-450.12 535.85,-443.53 553.2,-437.28"/>
<polygon fill="black" stroke="black" points="554.51,-440.53 562.73,-433.85 552.14,-433.94 554.51,-440.53"/>
</g>
<!-- emilebct -->
<g id="node34" class="node">
<title>emilebct</title>
<polygon fill="#f0f0f0" stroke="orange" stroke-width="4" points="673.5,-496 586.5,-496 586.5,-458 673.5,-458 673.5,-496"/>
<text text-anchor="middle" x="630" y="-480.8" font-family="Arial" font-size="14.00">BOUCHET </text>
<text text-anchor="middle" x="630" y="-465.8" font-family="Arial" font-size="14.00">Emile</text>
</g>
<!-- smitty&#45;&gt;emilebct -->
<g id="edge23" class="edge">
<title>smitty&#45;&gt;emilebct</title>
<path fill="none" stroke="black" d="M500.62,-478.98C525.27,-478.6 552.91,-478.17 576.21,-477.81"/>
<polygon fill="black" stroke="black" points="576.3,-481.31 586.25,-477.66 576.2,-474.31 576.3,-481.31"/>
</g>
<!-- arnaudauz -->
<g id="node37" class="node">
<title>arnaudauz</title>
<polygon fill="#f0f0f0" stroke="black" points="829,-376 764,-376 764,-338 829,-338 829,-376"/>
<text text-anchor="middle" x="796.5" y="-360.8" font-family="Arial" font-size="14.00">AUZOU</text>
<text text-anchor="middle" x="796.5" y="-345.8" font-family="Arial" font-size="14.00">Arnaud</text>
</g>
<!-- chloenico&#45;&gt;arnaudauz -->
<g id="edge29" class="edge">
<title>chloenico&#45;&gt;arnaudauz</title>
<path fill="none" stroke="black" d="M697.43,-388.6C716.52,-382.45 736.78,-375.92 753.9,-370.4"/>
<polygon fill="black" stroke="black" points="755.14,-373.68 763.59,-367.28 753,-367.02 755.14,-373.68"/>
</g>
<!-- gabrielbr -->
<g id="node45" class="node">
<title>gabrielbr</title>
<polygon fill="#f0f0f0" stroke="#2128f5" stroke-width="4" points="839,-320 754,-320 754,-282 839,-282 839,-320"/>
<text text-anchor="middle" x="796.5" y="-304.8" font-family="Arial" font-size="14.00">BREMARD</text>
<text text-anchor="middle" x="796.5" y="-289.8" font-family="Arial" font-size="14.00">Gabriel</text>
</g>
<!-- didieraud&#45;&gt;gabrielbr -->
<g id="edge30" class="edge">
<title>didieraud&#45;&gt;gabrielbr</title>
<path fill="none" stroke="black" d="M661.17,-339.38C684.3,-332.77 716.77,-323.5 743.99,-315.72"/>
<polygon fill="black" stroke="black" points="745.1,-319.04 753.75,-312.93 743.17,-312.31 745.1,-319.04"/>
</g>
<!-- constancep -->
<g id="node38" class="node">
<title>constancep</title>
<polygon fill="#f0f0f0" stroke="black" points="837,-432 756,-432 756,-394 837,-394 837,-432"/>
<text text-anchor="middle" x="796.5" y="-416.8" font-family="Arial" font-size="14.00">PELLET</text>
<text text-anchor="middle" x="796.5" y="-401.8" font-family="Arial" font-size="14.00">Constance</text>
</g>
<!-- emilebct&#45;&gt;constancep -->
<g id="edge26" class="edge">
<title>emilebct&#45;&gt;constancep</title>
<path fill="none" stroke="black" d="M673.79,-460.35C695.95,-451.73 723.11,-441.16 746.15,-432.2"/>
<polygon fill="black" stroke="black" points="747.7,-435.35 755.75,-428.47 745.16,-428.83 747.7,-435.35"/>
</g>
<!-- raphaelcle -->
<g id="node40" class="node">
<title>raphaelcle</title>
<polygon fill="#f05050" stroke="pink" stroke-width="4" points="848.5,-500 744.5,-500 744.5,-450 848.5,-450 848.5,-500"/>
<text text-anchor="start" x="763.5" y="-485.8" font-family="Arial" font-size="14.00">CLEMENT</text>
<text text-anchor="start" x="771" y="-471.8" font-family="Arial" font-size="14.00">Raphaël</text>
<text text-anchor="start" x="752.5" y="-457.8" font-family="Arial" font-style="italic" font-size="14.00">Vice&#45;Président</text>
</g>
<!-- emilebct&#45;&gt;raphaelcle -->
<g id="edge27" class="edge">
<title>emilebct&#45;&gt;raphaelcle</title>
<path fill="none" stroke="black" d="M673.79,-476.48C692.28,-476.25 714.25,-475.99 734.4,-475.74"/>
<polygon fill="black" stroke="black" points="734.48,-479.24 744.44,-475.62 734.39,-472.24 734.48,-479.24"/>
</g>
<!-- emmariot -->
<g id="node41" class="node">
<title>emmariot</title>
<polygon fill="#f05050" stroke="pink" stroke-width="4" points="843.5,-568 749.5,-568 749.5,-518 843.5,-518 843.5,-568"/>
<text text-anchor="start" x="779.5" y="-553.8" font-family="Arial" font-size="14.00">RIOT</text>
<text text-anchor="start" x="776" y="-539.8" font-family="Arial" font-size="14.00">Emma</text>
<text text-anchor="start" x="757.5" y="-525.8" font-family="Arial" font-style="italic" font-size="14.00">Respo Clubs</text>
</g>
<!-- emilebct&#45;&gt;emmariot -->
<g id="edge28" class="edge">
<title>emilebct&#45;&gt;emmariot</title>
<path fill="none" stroke="black" d="M673.79,-494.17C694.02,-502.29 718.43,-512.08 740.06,-520.76"/>
<polygon fill="black" stroke="black" points="738.88,-524.05 749.46,-524.53 741.48,-517.56 738.88,-524.05"/>
</g>
<!-- agatleduc -->
<g id="node35" class="node">
<title>agatleduc</title>
<polygon fill="#f0f0f0" stroke="orange" stroke-width="4" points="661,-311 599,-311 599,-273 661,-273 661,-311"/>
<text text-anchor="middle" x="630" y="-295.8" font-family="Arial" font-size="14.00">LEDUC</text>
<text text-anchor="middle" x="630" y="-280.8" font-family="Arial" font-size="14.00">Agathe</text>
</g>
<!-- romainorp -->
<g id="node36" class="node">
<title>romainorp</title>
<polygon fill="#f05050" stroke="yellow" stroke-width="4" points="672,-255 588,-255 588,-205 672,-205 672,-255"/>
<text text-anchor="start" x="606.5" y="-240.8" font-family="Arial" font-size="14.00">ORPEL</text>
<text text-anchor="start" x="606" y="-226.8" font-family="Arial" font-size="14.00">Romain</text>
<text text-anchor="start" x="596" y="-212.8" font-family="Arial" font-style="italic" font-size="14.00">Inté/Events</text>
</g>
<!-- corentinec -->
<g id="node43" class="node">
<title>corentinec</title>
<polygon fill="#f0f0f0" stroke="black" points="834,-262 759,-262 759,-224 834,-224 834,-262"/>
<text text-anchor="middle" x="796.5" y="-246.8" font-family="Arial" font-size="14.00">ECORCE</text>
<text text-anchor="middle" x="796.5" y="-231.8" font-family="Arial" font-size="14.00">Corentin</text>
</g>
<!-- romainorp&#45;&gt;corentinec -->
<g id="edge24" class="edge">
<title>romainorp&#45;&gt;corentinec</title>
<path fill="none" stroke="black" d="M672.09,-233.25C695.4,-235.09 724.66,-237.4 748.84,-239.31"/>
<polygon fill="black" stroke="black" points="748.61,-242.81 758.86,-240.1 749.16,-235.83 748.61,-242.81"/>
</g>
<!-- theoborel -->
<g id="node44" class="node">
<title>theoborel</title>
<polygon fill="#f05050" stroke="pink" stroke-width="4" points="860,-206 733,-206 733,-156 860,-156 860,-206"/>
<text text-anchor="start" x="764" y="-191.8" font-family="Arial" font-size="14.00">BORRELY</text>
<text text-anchor="start" x="781" y="-177.8" font-family="Arial" font-size="14.00">Théo</text>
<text text-anchor="start" x="741" y="-163.8" font-family="Arial" font-style="italic" font-size="14.00">Respo Inté/Events</text>
</g>
<!-- romainorp&#45;&gt;theoborel -->
<g id="edge25" class="edge">
<title>romainorp&#45;&gt;theoborel</title>
<path fill="none" stroke="black" d="M672.09,-217.76C687.58,-213.15 705.71,-207.75 723.22,-202.53"/>
<polygon fill="black" stroke="black" points="724.28,-205.87 732.86,-199.66 722.28,-199.16 724.28,-205.87"/>
</g>
<!-- romainorp&#45;&gt;endnode -->
<!-- agathechop -->
<g id="node39" class="node">
<title>agathechop</title>
<polygon fill="#f0f0f0" stroke="black" points="831.5,-134 761.5,-134 761.5,-96 831.5,-96 831.5,-134"/>
<text text-anchor="middle" x="796.5" y="-118.8" font-family="Arial" font-size="14.00">CHOPIN</text>
<text text-anchor="middle" x="796.5" y="-103.8" font-family="Arial" font-size="14.00">Agathe</text>
</g>
<!-- amelin -->
<g id="node46" class="node">
<title>amelin</title>
<polygon fill="#f0f0f0" stroke="black" points="974.5,-494 915.5,-494 915.5,-456 974.5,-456 974.5,-494"/>
<text text-anchor="middle" x="945" y="-478.8" font-family="Arial" font-size="14.00">MELIN</text>
<text text-anchor="middle" x="945" y="-463.8" font-family="Arial" font-size="14.00">Arthur</text>
</g>
<!-- raphaelcle&#45;&gt;amelin -->
<g id="edge31" class="edge">
<title>raphaelcle&#45;&gt;amelin</title>
<path fill="none" stroke="black" d="M848.74,-475C867.19,-475 887.69,-475 904.94,-475"/>
<polygon fill="black" stroke="black" points="905.2,-478.5 915.2,-475 905.2,-471.5 905.2,-478.5"/>
</g>
<!-- jcratz -->
<g id="node49" class="node">
<title>jcratz</title>
<polygon fill="yellow" stroke="black" points="976,-568 914,-568 914,-518 976,-518 976,-568"/>
<text text-anchor="start" x="922.5" y="-553.8" font-family="Arial" font-size="14.00">CRATZ</text>
<text text-anchor="start" x="923.5" y="-539.8" font-family="Arial" font-size="14.00">Justine</text>
<text text-anchor="start" x="922" y="-525.8" font-family="Arial" font-style="italic" font-size="14.00">PULCE</text>
</g>
<!-- emmariot&#45;&gt;jcratz -->
<g id="edge36" class="edge">
<title>emmariot&#45;&gt;jcratz</title>
<path fill="none" stroke="black" d="M843.85,-543C863,-543 885,-543 903.49,-543"/>
<polygon fill="black" stroke="black" points="903.65,-546.5 913.65,-543 903.65,-539.5 903.65,-546.5"/>
</g>
<!-- ldumenil -->
<g id="node42" class="node">
<title>ldumenil</title>
<polygon fill="#f05050" stroke="pink" stroke-width="4" points="835.5,-69 757.5,-69 757.5,-19 835.5,-19 835.5,-69"/>
<text text-anchor="start" x="765.5" y="-54.8" font-family="Arial" font-size="14.00">DUMENIL</text>
<text text-anchor="start" x="776" y="-40.8" font-family="Arial" font-size="14.00">Léonie</text>
<text text-anchor="start" x="782.5" y="-26.8" font-family="Arial" font-style="italic" font-size="14.00">Prev</text>
</g>
<!-- asenez -->
<g id="node47" class="node">
<title>asenez</title>
<polygon fill="#f0f0f0" stroke="green" stroke-width="4" points="994,-57 896,-57 896,-21 994,-21 994,-57"/>
<text text-anchor="middle" x="945" y="-35.3" font-family="Arial" font-size="14.00">SENEZAlexis</text>
</g>
<!-- ldumenil&#45;&gt;asenez -->
<g id="edge32" class="edge">
<title>ldumenil&#45;&gt;asenez</title>
<path fill="none" stroke="black" d="M835.61,-42.7C850.84,-42.18 868.74,-41.57 885.55,-41"/>
<polygon fill="black" stroke="black" points="885.96,-44.48 895.84,-40.64 885.72,-37.49 885.96,-44.48"/>
</g>
<!-- clalance -->
<g id="node50" class="node">
<title>clalance</title>
<polygon fill="#f0f0f0" stroke="black" points="979,-113 911,-113 911,-75 979,-75 979,-113"/>
<text text-anchor="middle" x="945" y="-97.8" font-family="Arial" font-size="14.00">LALANE</text>
<text text-anchor="middle" x="945" y="-82.8" font-family="Arial" font-size="14.00">Candice</text>
</g>
<!-- ldumenil&#45;&gt;clalance -->
<g id="edge33" class="edge">
<title>ldumenil&#45;&gt;clalance</title>
<path fill="none" stroke="black" d="M835.61,-57.01C855.66,-63.85 880.32,-72.27 901.05,-79.34"/>
<polygon fill="black" stroke="black" points="899.97,-82.67 910.57,-82.59 902.24,-76.05 899.97,-82.67"/>
</g>
<!-- tlebrun -->
<g id="node48" class="node">
<title>tlebrun</title>
<polygon fill="#f05050" stroke="purple" stroke-width="4" points="990.5,-295 899.5,-295 899.5,-245 990.5,-245 990.5,-295"/>
<text text-anchor="start" x="917.5" y="-280.8" font-family="Arial" font-size="14.00">LEBRUN</text>
<text text-anchor="start" x="920.5" y="-266.8" font-family="Arial" font-size="14.00">Thibault</text>
<text text-anchor="start" x="907.5" y="-252.8" font-family="Arial" font-style="italic" font-size="14.00">Respo Rézo</text>
</g>
<!-- gabrielbr&#45;&gt;tlebrun -->
<g id="edge34" class="edge">
<title>gabrielbr&#45;&gt;tlebrun</title>
<path fill="none" stroke="black" d="M839.09,-292.2C854.71,-288.89 872.71,-285.08 889.34,-281.57"/>
<polygon fill="black" stroke="black" points="890.43,-284.91 899.49,-279.42 888.98,-278.06 890.43,-284.91"/>
</g>
<!-- gsibille -->
<g id="node51" class="node">
<title>gsibille</title>
<polygon fill="#f0f0f0" stroke="black" points="984.5,-351 905.5,-351 905.5,-313 984.5,-313 984.5,-351"/>
<text text-anchor="middle" x="945" y="-335.8" font-family="Arial" font-size="14.00">SIBILLE</text>
<text text-anchor="middle" x="945" y="-320.8" font-family="Arial" font-size="14.00">Guillaume</text>
</g>
<!-- gabrielbr&#45;&gt;gsibille -->
<g id="edge35" class="edge">
<title>gabrielbr&#45;&gt;gsibille</title>
<path fill="none" stroke="black" d="M839.09,-309.8C856.65,-313.52 877.21,-317.87 895.46,-321.73"/>
<polygon fill="black" stroke="black" points="894.82,-325.17 905.32,-323.82 896.26,-318.32 894.82,-325.17"/>
</g>
</g>
</svg>
